<svg width="28" height="27" viewBox="0 0 28 27" fill="none" xmlns="http://www.w3.org/2000/svg">
<path fill-rule="evenodd" clip-rule="evenodd" d="M3.72807 4.35836L8.08643 0L9.60964 1.52321L3.71114 7.4217L0 3.71114L1.54072 2.17043L3.72807 4.35836V4.35836ZM27.922 4.82875H11.5851V2.51242H27.922V4.82875Z" fill="white"/>
<path fill-rule="evenodd" clip-rule="evenodd" d="M3.72807 4.35836L8.08643 0L9.60964 1.52321L3.71114 7.4217L0 3.71114L1.54072 2.17043L3.72807 4.35836ZM27.922 4.82875H11.5851V2.51242H27.922V4.82875Z" fill="white"/>
<path fill-rule="evenodd" clip-rule="evenodd" d="M3.72807 23.0337L8.08643 18.6754L9.60964 20.1986L3.71114 26.0971L0 22.3865L1.54072 20.8458L3.72807 23.0337V23.0337ZM27.922 23.5041H11.5851V21.1878H27.922V23.5041Z" fill="white"/>
<path fill-rule="evenodd" clip-rule="evenodd" d="M3.72807 23.0337L8.08643 18.6754L9.60964 20.1986L3.71114 26.0971L0 22.3865L1.54072 20.8458L3.72807 23.0337ZM27.922 23.5041H11.5851V21.1878H27.922V23.5041Z" fill="white"/>
<path fill-rule="evenodd" clip-rule="evenodd" d="M3.72807 13.696L8.08643 9.33765L9.60964 10.8609L3.71114 16.7594L0 13.0488L1.54072 11.5081L3.72807 13.696V13.696ZM27.922 14.1664H11.5851V11.8501H27.922V14.1664Z" fill="white"/>
<path fill-rule="evenodd" clip-rule="evenodd" d="M3.72807 13.696L8.08643 9.33765L9.60964 10.8609L3.71114 16.7594L0 13.0488L1.54072 11.5081L3.72807 13.696V13.696ZM27.922 14.1664H11.5851V11.8501H27.922V14.1664Z" fill="white"/>
</svg>
