<svg width="32" height="32" viewBox="0 0 32 32" fill="none" xmlns="http://www.w3.org/2000/svg">
<path fill-rule="evenodd" clip-rule="evenodd" d="M26.4 4.54533H25.1V3.27261C25.1 2.57261 24.515 1.99988 23.8 1.99988C23.085 1.99988 22.5 2.57261 22.5 3.27261V4.54533H9.5V3.27261C9.5 2.57261 8.915 1.99988 8.2 1.99988C7.485 1.99988 6.9 2.57261 6.9 3.27261V4.54533H5.6C4.17 4.54533 3 5.69079 3 7.09079V27.4544C3 28.8544 4.17 29.9999 5.6 29.9999H26.4C27.83 29.9999 29 28.8544 29 27.4544V7.09079C29 5.69079 27.83 4.54533 26.4 4.54533ZM25.1 27.4544H6.9C6.185 27.4544 5.6 26.8817 5.6 26.1817V10.909H26.4V26.1817C26.4 26.8817 25.815 27.4544 25.1 27.4544Z" fill="white"/>
</svg>
