<svg width="32" height="37" viewBox="0 0 32 37" fill="none" xmlns="http://www.w3.org/2000/svg">
<path d="M17.0759 22.768C16.4475 22.768 15.9375 21.748 15.9375 20.4913C15.9375 19.2345 16.4475 18.2145 17.0759 18.2145C17.7043 18.2145 18.2143 19.2345 18.2143 20.4913C18.2143 21.748 17.7043 22.768 17.0759 22.768Z" fill="white"/>
<path d="M22.3762 0.278001C22.4994 0.385018 22.5981 0.517248 22.6656 0.665733C22.7332 0.814219 22.7681 0.975491 22.7679 1.13863V2.27702H23.9062C24.812 2.27702 25.6807 2.63683 26.3211 3.2773C26.9616 3.91777 27.3214 4.78644 27.3214 5.6922V34.152H30.7366C31.0385 34.152 31.3281 34.272 31.5416 34.4854C31.7551 34.6989 31.875 34.9885 31.875 35.2904C31.875 35.5923 31.7551 35.8819 31.5416 36.0954C31.3281 36.3089 31.0385 36.4288 30.7366 36.4288H1.13839C0.836472 36.4288 0.546918 36.3089 0.333427 36.0954C0.119937 35.8819 0 35.5923 0 35.2904C0 34.9885 0.119937 34.6989 0.333427 34.4854C0.546918 34.272 0.836472 34.152 1.13839 34.152H4.55357V3.41541C4.55361 3.14113 4.65268 2.87609 4.83255 2.66903C5.01243 2.46196 5.26101 2.3268 5.53259 2.2884L21.4701 0.0116174C21.6314 -0.0114192 21.7958 0.000441381 21.9521 0.0463975C22.1084 0.0923536 22.2531 0.171334 22.3762 0.278001V0.278001ZM23.9062 4.5538H22.7679V34.152H25.0446V5.6922C25.0446 5.39028 24.9247 5.10072 24.7112 4.88723C24.4977 4.67374 24.2082 4.5538 23.9062 4.5538V4.5538ZM6.83036 4.40354V34.152H20.4911V2.45233L6.83036 4.40354Z" fill="white"/>
</svg>
